<svg xmlns="http://www.w3.org/2000/svg" width="32" height="32" viewBox="0 0 32 32">
  <defs>
    <linearGradient id="leafGradient" x1="0%" y1="0%" x2="100%" y2="100%">
      <stop offset="0%" style="stop-color:#4caf50;stop-opacity:1" />
      <stop offset="100%" style="stop-color:#2e7d32;stop-opacity:1" />
    </linearGradient>
  </defs>
  
  <!-- Círculo de fundo -->
  <circle cx="16" cy="16" r="15" fill="url(#leafGradient)" stroke="#1b5e20" stroke-width="1"/>
  
  <!-- Folha principal -->
  <path d="M8 20 Q16 8 24 20 Q20 24 16 20 Q12 24 8 20 Z" fill="#ffffff" opacity="0.9"/>
  
  <!-- Veia da folha -->
  <line x1="16" y1="12" x2="16" y2="20" stroke="#2e7d32" stroke-width="1.5"/>
  
  <!-- Pequenas folhas laterais -->
  <path d="M12 16 Q14 14 16 16" fill="none" stroke="#2e7d32" stroke-width="1"/>
  <path d="M16 16 Q18 14 20 16" fill="none" stroke="#2e7d32" stroke-width="1"/>
  
  <!-- Símbolo de reciclagem pequeno -->
  <g transform="translate(22,6) scale(0.3)">
    <path d="M0 6 L6 0 L6 3 L12 3 L12 6 L6 6 L6 9 Z" fill="#ffffff"/>
    <path d="M12 6 L6 12 L9 12 L9 18 L12 18 L12 12 L15 12 Z" fill="#ffffff"/>
    <path d="M12 18 L18 12 L15 12 L15 6 L12 6 L12 12 L9 12 Z" fill="#ffffff"/>
  </g>
</svg>
